<svg id="Capa_1" enable-background="new 0 0 512 512" height="512" viewBox="0 0 512 512" width="512" xmlns="http://www.w3.org/2000/svg" fill="#fed136">

<g><path d="m391.207 389.949c-1.308-4.17-5.172-7.008-9.542-7.008h-77.02c3.95-3.223 8.53-5.764 13.508-7.443 78.636-26.527 131.469-99.938 131.469-182.672 0-51.373-20.051-99.706-56.459-136.097-36.386-36.37-84.809-56.516-136.348-56.728-.273-.001-.545-.001-.817-.001-51.599 0-100.16 20.076-136.818 56.585-36.63 36.48-56.802 84.865-56.802 136.242.001 82.826 52.911 156.262 131.66 182.735 4.905 1.648 9.431 4.167 13.348 7.378h-77.051c-4.37 0-8.234 2.838-9.542 7.008l-34.193 109.059c-.304.968-.458 1.977-.458 2.992 0 2.652 1.054 5.196 2.93 7.072s4.419 2.93 7.072 2.93l319.715-.001c3.183 0 6.176-1.515 8.06-4.081 1.884-2.565 2.435-5.874 1.482-8.911zm-308.829-197.122c0-46.019 18.082-89.372 50.915-122.071 32.884-32.75 76.431-50.756 122.707-50.756.241 0 .491 0 .732.001 95.332.392 172.889 77.92 172.889 172.824 0 74.145-47.365 139.939-117.861 163.721-13.382 4.514-24.86 13.354-32.321 24.89l-23.439 36.238-23.445-36.248c-7.471-11.55-18.887-20.366-32.144-24.822-70.599-23.733-118.032-89.55-118.033-163.777zm27.378 299.173 27.923-89.06h84.972l24.952 38.578c1.842 2.849 5.004 4.569 8.396 4.569s6.554-1.72 8.396-4.569l24.952-38.578h84.972l27.923 89.06z"/><path d="m344.341 258.109v-91.634c0-14.953-12.164-27.118-27.116-27.118h-15.728v-11.713c0-25-20.41-45.339-45.497-45.339s-45.498 20.339-45.498 45.339v11.713h-15.727c-14.952 0-27.116 12.165-27.116 27.118v91.634c0 25.101 20.706 45.522 46.157 45.522h84.369c25.45 0 46.156-20.421 46.156-45.522zm-113.839-130.465c0-13.972 11.438-25.339 25.498-25.339s25.497 11.367 25.497 25.339v11.713h-50.995zm-42.843 130.465v-91.634c0-3.925 3.192-7.118 7.116-7.118h15.727v22.96c0 5.523 4.477 10 10 10s10-4.477 10-10v-22.96h50.995v22.96c0 5.523 4.478 10 10 10s10-4.477 10-10v-22.96h15.728c3.924 0 7.116 3.193 7.116 7.118v91.634c0 14.073-11.733 25.522-26.156 25.522h-84.369c-14.423 0-26.157-11.449-26.157-25.522z"/></g>


</svg>